<svg height="4046" width="720" xmlns="http://www.w3.org/2000/svg">
<rect height="4046" fill="#555" width="720"></rect>
<text fill="#7f7" font-family="Courier New" font-size="12" xml:space="preserve">
<tspan x="10" y="26">24 megabytes installed</tspan>
<tspan x="10" y="42"></tspan>
<tspan x="10" y="58">node_modules</tspan>
<tspan x="10" y="74">└─┬ nexe@1.1.2 </tspan>
<tspan x="10" y="90">  ├── async@1.5.2 </tspan>
<tspan x="10" y="106">  ├─┬ browserify@13.3.0 </tspan>
<tspan x="10" y="122">  │ ├── assert@1.4.1 </tspan>
<tspan x="10" y="138">  │ ├─┬ browser-pack@6.0.2 </tspan>
<tspan x="10" y="154">  │ │ └── umd@3.0.1 </tspan>
<tspan x="10" y="170">  │ ├─┬ browser-resolve@1.11.2 </tspan>
<tspan x="10" y="186">  │ │ └── resolve@1.1.7 </tspan>
<tspan x="10" y="202">  │ ├─┬ browserify-zlib@0.1.4 </tspan>
<tspan x="10" y="218">  │ │ └── pako@0.2.9 </tspan>
<tspan x="10" y="234">  │ ├─┬ buffer@4.9.1 </tspan>
<tspan x="10" y="250">  │ │ ├── base64-js@1.2.0 </tspan>
<tspan x="10" y="266">  │ │ ├── ieee754@1.1.8 </tspan>
<tspan x="10" y="282">  │ │ └── isarray@1.0.0 </tspan>
<tspan x="10" y="298">  │ ├── cached-path-relative@1.0.1 </tspan>
<tspan x="10" y="314">  │ ├─┬ concat-stream@1.5.2 </tspan>
<tspan x="10" y="330">  │ │ ├── readable-stream@2.0.6 </tspan>
<tspan x="10" y="346">  │ │ └── typedarray@0.0.6 </tspan>
<tspan x="10" y="362">  │ ├─┬ console-browserify@1.1.0 </tspan>
<tspan x="10" y="378">  │ │ └── date-now@0.1.4 </tspan>
<tspan x="10" y="394">  │ ├── constants-browserify@1.0.0 </tspan>
<tspan x="10" y="410">  │ ├─┬ crypto-browserify@3.11.0 </tspan>
<tspan x="10" y="426">  │ │ ├─┬ browserify-cipher@1.0.0 </tspan>
<tspan x="10" y="442">  │ │ │ ├─┬ browserify-aes@1.0.6 </tspan>
<tspan x="10" y="458">  │ │ │ │ └── buffer-xor@1.0.3 </tspan>
<tspan x="10" y="474">  │ │ │ ├─┬ browserify-des@1.0.0 </tspan>
<tspan x="10" y="490">  │ │ │ │ └── des.js@1.0.0 </tspan>
<tspan x="10" y="506">  │ │ │ └── evp_bytestokey@1.0.0 </tspan>
<tspan x="10" y="522">  │ │ ├─┬ browserify-sign@4.0.4 </tspan>
<tspan x="10" y="538">  │ │ │ ├── bn.js@4.11.6 </tspan>
<tspan x="10" y="554">  │ │ │ ├── browserify-rsa@4.0.1 </tspan>
<tspan x="10" y="570">  │ │ │ ├─┬ elliptic@6.4.0 </tspan>
<tspan x="10" y="586">  │ │ │ │ ├── brorand@1.1.0 </tspan>
<tspan x="10" y="602">  │ │ │ │ ├── hash.js@1.0.3 </tspan>
<tspan x="10" y="618">  │ │ │ │ ├── hmac-drbg@1.0.1 </tspan>
<tspan x="10" y="634">  │ │ │ │ ├── minimalistic-assert@1.0.0 </tspan>
<tspan x="10" y="650">  │ │ │ │ └── minimalistic-crypto-utils@1.0.1 </tspan>
<tspan x="10" y="666">  │ │ │ └─┬ parse-asn1@5.1.0 </tspan>
<tspan x="10" y="682">  │ │ │   └── asn1.js@4.9.1 </tspan>
<tspan x="10" y="698">  │ │ ├── create-ecdh@4.0.0 </tspan>
<tspan x="10" y="714">  │ │ ├─┬ create-hash@1.1.2 </tspan>
<tspan x="10" y="730">  │ │ │ ├── cipher-base@1.0.3 </tspan>
<tspan x="10" y="746">  │ │ │ └── ripemd160@1.0.1 </tspan>
<tspan x="10" y="762">  │ │ ├── create-hmac@1.1.4 </tspan>
<tspan x="10" y="778">  │ │ ├─┬ diffie-hellman@5.0.2 </tspan>
<tspan x="10" y="794">  │ │ │ └── miller-rabin@4.0.0 </tspan>
<tspan x="10" y="810">  │ │ ├── pbkdf2@3.0.9 </tspan>
<tspan x="10" y="826">  │ │ ├── public-encrypt@4.0.0 </tspan>
<tspan x="10" y="842">  │ │ └── randombytes@2.0.3 </tspan>
<tspan x="10" y="858">  │ ├── defined@1.0.0 </tspan>
<tspan x="10" y="874">  │ ├── deps-sort@2.0.0 </tspan>
<tspan x="10" y="890">  │ ├── domain-browser@1.1.7 </tspan>
<tspan x="10" y="906">  │ ├── duplexer2@0.1.4 </tspan>
<tspan x="10" y="922">  │ ├── events@1.1.1 </tspan>
<tspan x="10" y="938">  │ ├─┬ has@1.0.1 </tspan>
<tspan x="10" y="954">  │ │ └── function-bind@1.1.0 </tspan>
<tspan x="10" y="970">  │ ├── htmlescape@1.1.1 </tspan>
<tspan x="10" y="986">  │ ├── https-browserify@0.0.1 </tspan>
<tspan x="10" y="1002">  │ ├── inherits@2.0.3 </tspan>
<tspan x="10" y="1018">  │ ├─┬ JSONStream@1.3.1 </tspan>
<tspan x="10" y="1034">  │ │ ├── jsonparse@1.3.0 </tspan>
<tspan x="10" y="1050">  │ │ └── through@2.3.8 </tspan>
<tspan x="10" y="1066">  │ ├─┬ labeled-stream-splicer@2.0.0 </tspan>
<tspan x="10" y="1082">  │ │ ├── isarray@0.0.1 </tspan>
<tspan x="10" y="1098">  │ │ └── stream-splicer@2.0.0 </tspan>
<tspan x="10" y="1114">  │ ├── os-browserify@0.1.2 </tspan>
<tspan x="10" y="1130">  │ ├─┬ parents@1.0.1 </tspan>
<tspan x="10" y="1146">  │ │ └── path-platform@0.11.15 </tspan>
<tspan x="10" y="1162">  │ ├── path-browserify@0.0.0 </tspan>
<tspan x="10" y="1178">  │ ├── process@0.11.9 </tspan>
<tspan x="10" y="1194">  │ ├── punycode@1.4.1 </tspan>
<tspan x="10" y="1210">  │ ├── querystring-es3@0.2.1 </tspan>
<tspan x="10" y="1226">  │ ├── read-only-stream@2.0.0 </tspan>
<tspan x="10" y="1242">  │ ├─┬ readable-stream@2.2.9 </tspan>
<tspan x="10" y="1258">  │ │ ├── buffer-shims@1.0.0 </tspan>
<tspan x="10" y="1274">  │ │ ├── core-util-is@1.0.2 </tspan>
<tspan x="10" y="1290">  │ │ ├── process-nextick-args@1.0.7 </tspan>
<tspan x="10" y="1306">  │ │ ├── string_decoder@1.0.0 </tspan>
<tspan x="10" y="1322">  │ │ └── util-deprecate@1.0.2 </tspan>
<tspan x="10" y="1338">  │ ├─┬ resolve@1.3.3 </tspan>
<tspan x="10" y="1354">  │ │ └── path-parse@1.0.5 </tspan>
<tspan x="10" y="1370">  │ ├─┬ shasum@1.0.2 </tspan>
<tspan x="10" y="1386">  │ │ ├── json-stable-stringify@0.0.1 </tspan>
<tspan x="10" y="1402">  │ │ └── sha.js@2.4.8 </tspan>
<tspan x="10" y="1418">  │ ├─┬ shell-quote@1.6.1 </tspan>
<tspan x="10" y="1434">  │ │ ├── array-filter@0.0.1 </tspan>
<tspan x="10" y="1450">  │ │ ├── array-map@0.0.0 </tspan>
<tspan x="10" y="1466">  │ │ ├── array-reduce@0.0.0 </tspan>
<tspan x="10" y="1482">  │ │ └── jsonify@0.0.0 </tspan>
<tspan x="10" y="1498">  │ ├── stream-browserify@2.0.1 </tspan>
<tspan x="10" y="1514">  │ ├─┬ stream-http@2.7.0 </tspan>
<tspan x="10" y="1530">  │ │ ├── builtin-status-codes@3.0.0 </tspan>
<tspan x="10" y="1546">  │ │ └── to-arraybuffer@1.0.1 </tspan>
<tspan x="10" y="1562">  │ ├── string_decoder@0.10.31 </tspan>
<tspan x="10" y="1578">  │ ├─┬ subarg@1.0.0 </tspan>
<tspan x="10" y="1594">  │ │ └── minimist@1.2.0 </tspan>
<tspan x="10" y="1610">  │ ├─┬ syntax-error@1.3.0 </tspan>
<tspan x="10" y="1626">  │ │ └── acorn@4.0.11 </tspan>
<tspan x="10" y="1642">  │ ├── through2@2.0.3 </tspan>
<tspan x="10" y="1658">  │ ├── timers-browserify@1.4.2 </tspan>
<tspan x="10" y="1674">  │ ├── tty-browserify@0.0.0 </tspan>
<tspan x="10" y="1690">  │ ├─┬ url@0.11.0 </tspan>
<tspan x="10" y="1706">  │ │ ├── punycode@1.3.2 </tspan>
<tspan x="10" y="1722">  │ │ └── querystring@0.2.0 </tspan>
<tspan x="10" y="1738">  │ ├─┬ util@0.10.3 </tspan>
<tspan x="10" y="1754">  │ │ └── inherits@2.0.1 </tspan>
<tspan x="10" y="1770">  │ ├─┬ vm-browserify@0.0.4 </tspan>
<tspan x="10" y="1786">  │ │ └── indexof@0.0.1 </tspan>
<tspan x="10" y="1802">  │ └── xtend@4.0.1 </tspan>
<tspan x="10" y="1818">  ├── colors@1.1.2 </tspan>
<tspan x="10" y="1834">  ├─┬ glob@7.1.1 </tspan>
<tspan x="10" y="1850">  │ ├── fs.realpath@1.0.0 </tspan>
<tspan x="10" y="1866">  │ ├─┬ inflight@1.0.6 </tspan>
<tspan x="10" y="1882">  │ │ └── wrappy@1.0.2 </tspan>
<tspan x="10" y="1898">  │ ├─┬ minimatch@3.0.3 </tspan>
<tspan x="10" y="1914">  │ │ └─┬ brace-expansion@1.1.7 </tspan>
<tspan x="10" y="1930">  │ │   ├── balanced-match@0.4.2 </tspan>
<tspan x="10" y="1946">  │ │   └── concat-map@0.0.1 </tspan>
<tspan x="10" y="1962">  │ ├── once@1.4.0 </tspan>
<tspan x="10" y="1978">  │ └── path-is-absolute@1.0.1 </tspan>
<tspan x="10" y="1994">  ├─┬ gunzip-maybe@1.4.0 </tspan>
<tspan x="10" y="2010">  │ ├── is-deflate@1.0.0 </tspan>
<tspan x="10" y="2026">  │ ├── is-gzip@1.0.0 </tspan>
<tspan x="10" y="2042">  │ ├─┬ peek-stream@1.1.2 </tspan>
<tspan x="10" y="2058">  │ │ └─┬ duplexify@3.5.0 </tspan>
<tspan x="10" y="2074">  │ │   └── stream-shift@1.0.0 </tspan>
<tspan x="10" y="2090">  │ └─┬ pumpify@1.3.5 </tspan>
<tspan x="10" y="2106">  │   └─┬ pump@1.0.2 </tspan>
<tspan x="10" y="2122">  │     └── end-of-stream@1.4.0 </tspan>
<tspan x="10" y="2138">  ├─┬ insert-module-globals@7.0.1 </tspan>
<tspan x="10" y="2154">  │ ├─┬ combine-source-map@0.7.2 </tspan>
<tspan x="10" y="2170">  │ │ ├── convert-source-map@1.1.3 </tspan>
<tspan x="10" y="2186">  │ │ ├── inline-source-map@0.6.2 </tspan>
<tspan x="10" y="2202">  │ │ ├── lodash.memoize@3.0.4 </tspan>
<tspan x="10" y="2218">  │ │ └── source-map@0.5.6 </tspan>
<tspan x="10" y="2234">  │ ├── is-buffer@1.1.5 </tspan>
<tspan x="10" y="2250">  │ └─┬ lexical-scope@1.2.0 </tspan>
<tspan x="10" y="2266">  │   └── astw@2.2.0 </tspan>
<tspan x="10" y="2282">  ├─┬ mkdirp@0.5.1 </tspan>
<tspan x="10" y="2298">  │ └── minimist@0.0.8 </tspan>
<tspan x="10" y="2314">  ├─┬ module-deps@4.1.1 </tspan>
<tspan x="10" y="2330">  │ ├── detective@4.5.0 </tspan>
<tspan x="10" y="2346">  │ └── stream-combiner2@1.1.1 </tspan>
<tspan x="10" y="2362">  ├── ncp@2.0.0 </tspan>
<tspan x="10" y="2378">  ├── progress@1.1.8 </tspan>
<tspan x="10" y="2394">  ├─┬ request@2.81.0 </tspan>
<tspan x="10" y="2410">  │ ├── aws-sign2@0.6.0 </tspan>
<tspan x="10" y="2426">  │ ├── aws4@1.6.0 </tspan>
<tspan x="10" y="2442">  │ ├── caseless@0.12.0 </tspan>
<tspan x="10" y="2458">  │ ├─┬ combined-stream@1.0.5 </tspan>
<tspan x="10" y="2474">  │ │ └── delayed-stream@1.0.0 </tspan>
<tspan x="10" y="2490">  │ ├── extend@3.0.0 </tspan>
<tspan x="10" y="2506">  │ ├── forever-agent@0.6.1 </tspan>
<tspan x="10" y="2522">  │ ├─┬ form-data@2.1.4 </tspan>
<tspan x="10" y="2538">  │ │ └── asynckit@0.4.0 </tspan>
<tspan x="10" y="2554">  │ ├─┬ har-validator@4.2.1 </tspan>
<tspan x="10" y="2570">  │ │ ├─┬ ajv@4.11.7 </tspan>
<tspan x="10" y="2586">  │ │ │ ├── co@4.6.0 </tspan>
<tspan x="10" y="2602">  │ │ │ └── json-stable-stringify@1.0.1 </tspan>
<tspan x="10" y="2618">  │ │ └── har-schema@1.0.5 </tspan>
<tspan x="10" y="2634">  │ ├─┬ hawk@3.1.3 </tspan>
<tspan x="10" y="2650">  │ │ ├── boom@2.10.1 </tspan>
<tspan x="10" y="2666">  │ │ ├── cryptiles@2.0.5 </tspan>
<tspan x="10" y="2682">  │ │ ├── hoek@2.16.3 </tspan>
<tspan x="10" y="2698">  │ │ └── sntp@1.0.9 </tspan>
<tspan x="10" y="2714">  │ ├─┬ http-signature@1.1.1 </tspan>
<tspan x="10" y="2730">  │ │ ├── assert-plus@0.2.0 </tspan>
<tspan x="10" y="2746">  │ │ ├─┬ jsprim@1.4.0 </tspan>
<tspan x="10" y="2762">  │ │ │ ├── assert-plus@1.0.0 </tspan>
<tspan x="10" y="2778">  │ │ │ ├── extsprintf@1.0.2 </tspan>
<tspan x="10" y="2794">  │ │ │ ├── json-schema@0.2.3 </tspan>
<tspan x="10" y="2810">  │ │ │ └── verror@1.3.6 </tspan>
<tspan x="10" y="2826">  │ │ └─┬ sshpk@1.13.0 </tspan>
<tspan x="10" y="2842">  │ │   ├── asn1@0.2.3 </tspan>
<tspan x="10" y="2858">  │ │   ├── assert-plus@1.0.0 </tspan>
<tspan x="10" y="2874">  │ │   ├── bcrypt-pbkdf@1.0.1 </tspan>
<tspan x="10" y="2890">  │ │   ├─┬ dashdash@1.14.1 </tspan>
<tspan x="10" y="2906">  │ │   │ └── assert-plus@1.0.0 </tspan>
<tspan x="10" y="2922">  │ │   ├── ecc-jsbn@0.1.1 </tspan>
<tspan x="10" y="2938">  │ │   ├─┬ getpass@0.1.7 </tspan>
<tspan x="10" y="2954">  │ │   │ └── assert-plus@1.0.0 </tspan>
<tspan x="10" y="2970">  │ │   ├── jodid25519@1.0.2 </tspan>
<tspan x="10" y="2986">  │ │   ├── jsbn@0.1.1 </tspan>
<tspan x="10" y="3002">  │ │   └── tweetnacl@0.14.5 </tspan>
<tspan x="10" y="3018">  │ ├── is-typedarray@1.0.0 </tspan>
<tspan x="10" y="3034">  │ ├── isstream@0.1.2 </tspan>
<tspan x="10" y="3050">  │ ├── json-stringify-safe@5.0.1 </tspan>
<tspan x="10" y="3066">  │ ├─┬ mime-types@2.1.15 </tspan>
<tspan x="10" y="3082">  │ │ └── mime-db@1.27.0 </tspan>
<tspan x="10" y="3098">  │ ├── oauth-sign@0.8.2 </tspan>
<tspan x="10" y="3114">  │ ├── performance-now@0.2.0 </tspan>
<tspan x="10" y="3130">  │ ├── qs@6.4.0 </tspan>
<tspan x="10" y="3146">  │ ├── safe-buffer@5.0.1 </tspan>
<tspan x="10" y="3162">  │ ├── stringstream@0.0.5 </tspan>
<tspan x="10" y="3178">  │ ├── tough-cookie@2.3.2 </tspan>
<tspan x="10" y="3194">  │ ├── tunnel-agent@0.6.0 </tspan>
<tspan x="10" y="3210">  │ └── uuid@3.0.1 </tspan>
<tspan x="10" y="3226">  ├─┬ tar-stream@1.5.2 </tspan>
<tspan x="10" y="3242">  │ ├── bl@1.2.0 </tspan>
<tspan x="10" y="3258">  │ └─┬ end-of-stream@1.0.0 </tspan>
<tspan x="10" y="3274">  │   └── once@1.3.3 </tspan>
<tspan x="10" y="3290">  └─┬ yargs@4.8.1 </tspan>
<tspan x="10" y="3306">    ├─┬ cliui@3.2.0 </tspan>
<tspan x="10" y="3322">    │ ├─┬ strip-ansi@3.0.1 </tspan>
<tspan x="10" y="3338">    │ │ └── ansi-regex@2.1.1 </tspan>
<tspan x="10" y="3354">    │ └── wrap-ansi@2.1.0 </tspan>
<tspan x="10" y="3370">    ├── decamelize@1.2.0 </tspan>
<tspan x="10" y="3386">    ├── get-caller-file@1.0.2 </tspan>
<tspan x="10" y="3402">    ├── lodash.assign@4.2.0 </tspan>
<tspan x="10" y="3418">    ├─┬ os-locale@1.4.0 </tspan>
<tspan x="10" y="3434">    │ └─┬ lcid@1.0.0 </tspan>
<tspan x="10" y="3450">    │   └── invert-kv@1.0.0 </tspan>
<tspan x="10" y="3466">    ├─┬ read-pkg-up@1.0.1 </tspan>
<tspan x="10" y="3482">    │ ├─┬ find-up@1.1.2 </tspan>
<tspan x="10" y="3498">    │ │ ├── path-exists@2.1.0 </tspan>
<tspan x="10" y="3514">    │ │ └─┬ pinkie-promise@2.0.1 </tspan>
<tspan x="10" y="3530">    │ │   └── pinkie@2.0.4 </tspan>
<tspan x="10" y="3546">    │ └─┬ read-pkg@1.1.0 </tspan>
<tspan x="10" y="3562">    │   ├─┬ load-json-file@1.1.0 </tspan>
<tspan x="10" y="3578">    │   │ ├── graceful-fs@4.1.11 </tspan>
<tspan x="10" y="3594">    │   │ ├─┬ parse-json@2.2.0 </tspan>
<tspan x="10" y="3610">    │   │ │ └─┬ error-ex@1.3.1 </tspan>
<tspan x="10" y="3626">    │   │ │   └── is-arrayish@0.2.1 </tspan>
<tspan x="10" y="3642">    │   │ ├── pify@2.3.0 </tspan>
<tspan x="10" y="3658">    │   │ └─┬ strip-bom@2.0.0 </tspan>
<tspan x="10" y="3674">    │   │   └── is-utf8@0.2.1 </tspan>
<tspan x="10" y="3690">    │   ├─┬ normalize-package-data@2.3.8 </tspan>
<tspan x="10" y="3706">    │   │ ├── hosted-git-info@2.4.2 </tspan>
<tspan x="10" y="3722">    │   │ ├─┬ is-builtin-module@1.0.0 </tspan>
<tspan x="10" y="3738">    │   │ │ └── builtin-modules@1.1.1 </tspan>
<tspan x="10" y="3754">    │   │ ├── semver@5.3.0 </tspan>
<tspan x="10" y="3770">    │   │ └─┬ validate-npm-package-license@3.0.1 </tspan>
<tspan x="10" y="3786">    │   │   ├─┬ spdx-correct@1.0.2 </tspan>
<tspan x="10" y="3802">    │   │   │ └── spdx-license-ids@1.2.2 </tspan>
<tspan x="10" y="3818">    │   │   └── spdx-expression-parse@1.0.4 </tspan>
<tspan x="10" y="3834">    │   └── path-type@1.1.0 </tspan>
<tspan x="10" y="3850">    ├── require-directory@2.1.1 </tspan>
<tspan x="10" y="3866">    ├── require-main-filename@1.0.1 </tspan>
<tspan x="10" y="3882">    ├── set-blocking@2.0.0 </tspan>
<tspan x="10" y="3898">    ├─┬ string-width@1.0.2 </tspan>
<tspan x="10" y="3914">    │ ├── code-point-at@1.1.0 </tspan>
<tspan x="10" y="3930">    │ └─┬ is-fullwidth-code-point@1.0.0 </tspan>
<tspan x="10" y="3946">    │   └── number-is-nan@1.0.1 </tspan>
<tspan x="10" y="3962">    ├── which-module@1.0.0 </tspan>
<tspan x="10" y="3978">    ├── window-size@0.2.0 </tspan>
<tspan x="10" y="3994">    ├── y18n@3.2.1 </tspan>
<tspan x="10" y="4010">    └─┬ yargs-parser@2.4.1 </tspan>
<tspan x="10" y="4026">      └── camelcase@3.0.0</tspan>
</text>
</svg>
